# AST/ASF file generated using VICON BodyLanguage
# -----------------------------------------------
:version 1.10
:name VICON
:units
  mass 1.0
  length 0.45
  angle deg
:documentation
   .ast/.asf automatically generated from VICON data using
   VICON BodyBuilder and BodyLanguage model FoxedUp or BRILLIANT.MOD
:root
   order TX TY TZ RX RY RZ
   axis XYZ
   position 0 0 0  
   orientation 0 0 0 
:bonedata
  begin
     id 1 
     name lhipjoint
     direction 0.710188 -0.616876 0.339259 
     length 2.5669 
     axis 0 0 0  XYZ
  end
  begin
     id 2 
     name lfemur
     direction 0.34202 -0.939693 0  
     length 7.12796  
     axis 0 0 20  XYZ
    dof rx ry rz
    limits (-160.0 20.0)
           (-70.0 70.0)
           (-60.0 70.0)
  end
  begin
     id 3 
     name ltibia
     direction 0.34202 -0.939693 0   
     length 7.58108   
     axis 0 0 20   XYZ
    dof rx
    limits (-10.0 170.0)
  end
  begin
     id 4 
     name lfoot
     direction 0.0669471 -0.183936 0.980656   
     length 2.17365   
     axis -90 7.62852e-016 20   XYZ
    dof rx rz
    limits (-45.0 90.0)
           (-70.0 20.0)
  end
  begin
     id 5 
     name ltoes
     direction 1.53508e-011 -4.21705e-011 1   
     length 1.09427   
     axis -90 7.62852e-016 20   XYZ
    dof rx
    limits (-90.0 20.0)
  end
  begin
     id 6 
     name rhipjoint
     direction -0.700191 -0.625589 0.34405   
     length 2.53115  
     axis 0 0 0  XYZ 
  end
  begin
     id 7 
     name rfemur
     direction -0.34202 -0.939693 0   
     length 7.33006   
     axis 0 0 -20   XYZ
    dof rx ry rz
    limits (-160.0 20.0)
           (-70.0 70.0)
           (-70.0 60.0)
  end
  begin
     id 8 
     name rtibia
     direction -0.34202 -0.939693 0   
     length 7.64926   
     axis 0 0 -20   XYZ
    dof rx
    limits (-10.0 170.0)
 end
 begin
     id 9 
     name rfoot
     direction -0.0688927 -0.189281 0.979503   
     length 2.20493  
     axis -90 -7.62852e-016 -20   XYZ
    dof rx rz
    limits (-45.0 90.0)
           (-20.0 70.0)
  end
  begin
     id 10 
     name rtoes
     direction -1.53567e-011 -4.21933e-011 1   
     length 1.10919   
     axis -90 -7.62852e-016 -20   XYZ
    dof rx
    limits (-90.0 20.0)
  end
  begin
     id 11 
     name lowerback
     direction -0.0167868 0.989873 -0.140959   
     length 2.14596   
     axis 0 0 0   XYZ
    dof rx ry rz
    limits (-20.0 45.0)
           (-30.0 30.0)
           (-30.0 30.0)
  end
  begin
     id 12 
     name upperback
     direction 0.0129109 0.998033 0.0613525   
     length 2.10457   
     axis 0 0 0   XYZ
    dof rx ry rz
    limits (-20.0 45.0)
           (-30.0 30.0)
           (-30.0 30.0)
  end
  begin
     id 13 
     name thorax
     direction 0.0177047 0.991119 0.131797   
     length 2.17652   
     axis 0 0 0   XYZ
    dof rx ry rz
    limits (-20.0 45.0)
           (-30.0 30.0)
           (-30.0 30.0)
  end
  begin
     id 14 
     name lowerneck
     direction -0.0336893 0.997548 0.0613464   
     length 1.8912   
     axis 0 0 0   XYZ
    dof rx ry rz
    limits (-20.0 45.0)
           (-30.0 30.0)
           (-30.0 30.0)
  end
  begin
     id 15 
     name upperneck
     direction 0.0435909 0.997179 -0.0611028   
     length 1.8829   
     axis 0 0 0   XYZ
    dof rx ry rz
    limits (-20.0 45.0)
           (-30.0 30.0)
           (-30.0 30.0)
  end
  begin
     id 16
     name head
     direction 0.0175076 0.999444 -0.0283782  
     length 1.93197  
     axis 0 0 0   XYZ
    dof rx ry rz
    limits (-20.0 45.0)
           (-30.0 30.0)
           (-30.0 30.0)
  end
  begin
     id 17 
     name lclavicle
     direction 0.919164 0.389875 0.0559876  
     length 3.60004  
     axis 0 0 0   XYZ
    dof ry rz
    limits (-20.0 10.0)
           (0.0 20.0)
  end
  begin
     id 18 
     name lhumerus
     direction 1 -4.48958e-011 6.89191e-027   
     length 5.43301   
     axis 180 -30 -90   XYZ
    dof rx ry rz
    limits (-60.0 90.0)
           (-90.0 90.0)
           (-90.0 90.0)
  end
  begin
     id 19
     name lradius
     direction 1 -4.4897e-011 3.24727e-027   
     length 3.15936   
     axis 180 -30 -90   XYZ
    dof rx
    limits (-10.0 170.0)
  end
  begin
     id 20
     name lwrist
     direction 1 -4.4897e-011 9.00228e-027   
     length 1.57968   
     axis -6.29373e-015 90 90   XYZ
    dof ry
    limits (-180.0 0.0)
 end
  begin
     id 21 
     name lhand
     direction 1 -4.48968e-011 1.80042e-026   
     length 0.712827   
     axis -1.14882e-014 90 90   XYZ
    dof rx rz
    limits (-90.0 90.0)
           (-45.0 45.0)
  end
  begin
     id 22 
     name lfingers
     direction 1 -4.49019e-011 3.60267e-026   
     length 0.574699   
     axis -2.29769e-014 90 90   XYZ
    dof rx
    limits (0.0 90.0)
  end
  begin
     id 23
     name lthumb
     direction 0.707107 -6.3498e-011 0.707107   
     length 0.825157   
     axis -90 45 5.37419e-014   XYZ
    dof rx rz
    limits (-45.0 45.0)
           (-45.0 45.0)
  end
  begin
     id 24 
     name rclavicle
     direction -0.890334 0.455305 -0.00132111   
     length 3.51494  
     axis 0 0 0   XYZ 
    dof ry rz
    limits (-10.0 20.0)
           (-20.0 0.0)
  end
  begin
     id 25 
     name rhumerus
     direction -1 -4.48967e-011 5.07175e-028  
     length 5.34194   
     axis 180 30 90   XYZ
    dof rx ry rz
    limits (-90.0 60.0)
           (-90.0 90.0)
           (-90.0 90.0)
  end
  begin
     id 26 
     name rradius
     direction -1 -4.48955e-011 3.30467e-027   
     length 3.19351   
     axis 180 30 90   XYZ
    dof rx
    limits (-10.0 170.0)
  end
  begin
     id 27 
     name rwrist
     direction -1 -4.48968e-011 9.00208e-027   
     length 1.59676   
     axis -6.29373e-015 -90 -90   XYZ
    dof ry
    limits (-180.0 0.0)
  end
  begin
     id 28
     name rhand
     direction -1 -4.49e-011 1.80099e-026   
     length 0.743862   
     axis -1.14882e-014 -90 -90   XYZ
    dof rx rz
    limits (-90.0 90.0)
           (-45.0 45.0)
  end
  begin
     id 29
     name rfingers
     direction -1 -4.49009e-011 3.6023e-026   
     length 0.599721   
     axis -2.29769e-014 -90 -90   XYZ
    dof rx
    limits (0.0 90.0)
  end
  begin
     id 30
     name rthumb
     direction -0.707107 -6.35025e-011 0.707107   
     length 0.861083   
     axis -90 -45 -5.37419e-014   XYZ
    dof rx rz
    limits (-45.0 45.0)
           (-45.0 45.0)
  end
:hierarchy
  begin
    root lhipjoint rhipjoint lowerback
    lhipjoint lfemur
    lfemur ltibia
    ltibia lfoot
    lfoot ltoes
    rhipjoint rfemur
    rfemur rtibia
    rtibia rfoot
    rfoot rtoes
    lowerback upperback
    upperback thorax
    thorax lowerneck lclavicle rclavicle
    lowerneck upperneck
    upperneck head
    lclavicle lhumerus
    lhumerus lradius
    lradius lwrist
    lwrist lhand lthumb
    lhand lfingers
    rclavicle rhumerus
    rhumerus rradius
    rradius rwrist
    rwrist rhand rthumb
    rhand rfingers
  end

#!OML:ASF H:\Martial Arts Walks\Project 1\Capture day 1\Session 1\male.ASF
:FULLY-SPECIFIED
:DEGREES
376
root -1.51317 14.1134 -25.4341 11.652 -56.0523 -13.2065
lowerback 17.5194 5.19124 3.53181
upperback -3.53344 7.87837 0.889671
thorax -13.4554 3.40509 -3.22748
lowerneck -1.25234 8.72057 0.19572
upperneck 3.54458 11.4967 3.986
head 1.07056 5.80044 1.32704
rclavicle -4.33599e-015 1.07344e-014
rhumerus -55.4528 54.9887 -111.186
rradius 113.042
rwrist -77.5576
rhand 7.2136 -28.9307
rfingers 7.12502
rthumb 32.479 -56.0394
lclavicle -4.33599e-015 1.07344e-014
lhumerus 3.79369 14.0204 77.0199
lradius 84.9809
lwrist -24.6231
lhand -38.2832 44.3652
lfingers 7.12502
lthumb -11.3124 74.0401
rfemur -33.286 -30.8721 18.4484
rtibia 80.3581
rfoot -32.112 -18.2567
rtoes -16.5348
lfemur -55.9084 44.6995 -5.17225
ltibia 72.2124
lfoot -11.0861 5.91152
ltoes -11.4185
377
root -1.50781 14.1175 -25.3877 11.9836 -55.6927 -13.3687
lowerback 17.4828 5.12733 3.64808
upperback -3.53845 7.82884 0.979577
thorax -13.4411 3.37806 -3.17481
lowerneck -1.26652 8.68092 0.169509
upperneck 3.35085 11.4544 3.85306
head 1.01906 5.77539 1.2841
rclavicle -4.99819e-014 -2.42517e-014
rhumerus -54.9161 54.8892 -110.489
rradius 112.802
rwrist -76.9821
rhand 7.01956 -28.8158
rfingers 7.12502
rthumb 32.2943 -55.9623
lclavicle -4.99819e-014 -2.42517e-014
lhumerus 3.70615 14.0137 76.9898
lradius 84.9621
lwrist -24.3563
lhand -38.2479 44.5227
lfingers 7.12502
lthumb -11.2784 74.1994
rfemur -33.2462 -31.3366 18.4165
rtibia 80.165
rfoot -32.0045 -18.1191
rtoes -17.0082
lfemur -56.5774 44.7157 -5.63463
ltibia 72.4814
lfoot -11.4674 5.84344
ltoes -11.6834
378
root -1.50195 14.1226 -25.3394 12.3169 -55.2998 -13.5317
lowerback 17.4479 5.06411 3.76314
upperback -3.54098 7.78027 1.07375
thorax -13.4257 3.3518 -3.11716
lowerneck -1.2763 8.63168 0.137212
upperneck 3.14591 11.3995 3.71836
head 0.963388 5.74395 1.24098
rclavicle -4.3099e-014 -1.78906e-014
rhumerus -54.2689 54.7093 -109.682
rradius 112.48
rwrist -76.2953
rhand 6.83292 -28.7262
rfingers 7.12502
rthumb 32.1166 -55.9087
lclavicle -4.3099e-014 -1.78906e-014
lhumerus 3.60635 13.979 76.9475
lradius 84.9446
lwrist -24.0203
lhand -38.2378 44.7478
lfingers 7.12502
lthumb -11.2686 74.4251
rfemur -33.1904 -31.8109 18.387
rtibia 79.9511
rfoot -31.885 -17.986
rtoes -17.4592
lfemur -57.26 44.7024 -6.10906
ltibia 72.7316
lfoot -11.793 5.88661
ltoes -12.0725
379
root -1.49566 14.1289 -25.2891 12.6459 -54.8803 -13.694
lowerback 17.4181 5.00389 3.87389
upperback -3.54039 7.73517 1.17197
thorax -13.4108 3.32764 -3.05408
lowerneck -1.28583 8.57318 0.0997323
upperneck 2.93812 11.332 3.5814
head 0.906946 5.70633 1.19796
rclavicle 1.41261e-013 1.03368e-014
rhumerus -53.5008 54.4492 -108.762
rradius 112.062
rwrist -75.5208
rhand 6.61804 -28.6762
rfingers 7.12502
rthumb 31.912 -55.8998
lclavicle 1.41261e-013 1.03368e-014
lhumerus 3.48521 13.9156 76.8881
lradius 84.9335
lwrist -23.6225
lhand -38.2512 45.0371
lfingers 7.12502
lthumb -11.2815 74.7138
rfemur -33.113 -32.2846 18.3559
rtibia 79.7147
rfoot -31.7503 -17.8631
rtoes -17.8863
lfemur -57.9424 44.6656 -6.58985
ltibia 72.9654
lfoot -12.0642 6.06815
ltoes -12.5493
380
root -1.48895 14.1363 -25.2366 12.9677 -54.441 -13.8544
lowerback 17.3951 4.94877 3.97865
upperback -3.53652 7.69584 1.27236
thorax -13.3969 3.30664 -2.98747
lowerneck -1.30132 8.50612 0.0593004
upperneck 2.73581 11.2526 3.44345
head 0.853406 5.66297 1.15573
rclavicle -6.61704e-014 -1.19271e-015
rhumerus -52.6033 54.1098 -107.73
rradius 111.537
rwrist -74.6926
rhand 6.33536 -28.6677
rfingers 7.12502
rthumb 31.6428 -55.9446
lclavicle -6.61704e-014 -1.19271e-015
lhumerus 3.33619 13.8222 76.8061
lradius 84.9332
lwrist -23.1731
lhand -38.2819 45.3744
lfingers 7.12502
lthumb -11.3111 75.0494
rfemur -33.0114 -32.7472 18.3206
rtibia 79.4542
rfoot -31.5972 -17.7558
rtoes -18.288
lfemur -58.6144 44.6114 -7.07353
ltibia 73.1859
lfoot -12.2799 6.41047
ltoes -13.058
